<?xml version="1.0" encoding="UTF-8" standalone="no"?>
<!DOCTYPE svg PUBLIC "-//W3C//DTD SVG 1.1//EN" "http://www.w3.org/Graphics/SVG/1.1/DTD/svg11.dtd">
<svg version="1.1" xmlns="http://www.w3.org/2000/svg" xmlns:xlink="http://www.w3.org/1999/xlink" preserveAspectRatio="xMidYMid meet" viewBox="197.57295732338503 277.24667200729823 355.624857434246 25.424500850532866" width="410.31" height="25"><defs><path d="M225.96 291.27C225.96 290.8 225.96 289.62 225.96 289.16C225.96 289.05 225.87 288.96 225.77 288.96C224.12 288.96 219.34 288.96 217.68 288.96C217.57 288.96 217.48 289.05 217.48 289.16C217.48 289.62 217.48 290.8 217.48 291.27C217.48 291.38 217.57 291.47 217.68 291.47C219.34 291.47 224.12 291.47 225.77 291.47C225.87 291.47 225.96 291.38 225.96 291.27Z" id="a18IQRQ8hz"></path><path d="M242.97 291.27C242.97 290.8 242.97 289.62 242.97 289.16C242.97 289.05 242.88 288.96 242.78 288.96C241.13 288.96 236.35 288.96 234.68 288.96C234.58 288.96 234.49 289.05 234.49 289.16C234.49 289.62 234.49 290.8 234.49 291.27C234.49 291.38 234.58 291.47 234.68 291.47C236.35 291.47 241.13 291.47 242.78 291.47C242.88 291.47 242.97 291.38 242.97 291.27Z" id="c2eswib4vS"></path><path d="M260.26 291.27C260.26 290.8 260.26 289.62 260.26 289.16C260.26 289.05 260.17 288.96 260.07 288.96C258.41 288.96 253.64 288.96 251.97 288.96C251.87 288.96 251.78 289.05 251.78 289.16C251.78 289.62 251.78 290.8 251.78 291.27C251.78 291.38 251.87 291.47 251.97 291.47C253.64 291.47 258.41 291.47 260.07 291.47C260.17 291.47 260.26 291.38 260.26 291.27Z" id="d1OFiBazX"></path><path d="M277.17 291.27C277.17 290.8 277.17 289.62 277.17 289.16C277.17 289.05 277.09 288.96 276.98 288.96C275.33 288.96 270.55 288.96 268.89 288.96C268.78 288.96 268.7 289.05 268.7 289.16C268.7 289.62 268.7 290.8 268.7 291.27C268.7 291.38 268.78 291.47 268.89 291.47C270.55 291.47 275.33 291.47 276.98 291.47C277.09 291.47 277.17 291.38 277.17 291.27Z" id="a1rZYlitU7"></path><path d="M294.18 291.27C294.18 290.8 294.18 289.62 294.18 289.16C294.18 289.05 294.1 288.96 293.99 288.96C292.34 288.96 287.56 288.96 285.9 288.96C285.79 288.96 285.7 289.05 285.7 289.16C285.7 289.62 285.7 290.8 285.7 291.27C285.7 291.38 285.79 291.47 285.9 291.47C287.56 291.47 292.34 291.47 293.99 291.47C294.1 291.47 294.18 291.38 294.18 291.27Z" id="ayqfZJeEW"></path><path d="M311.47 291.27C311.47 290.8 311.47 289.62 311.47 289.16C311.47 289.05 311.38 288.96 311.28 288.96C309.63 288.96 304.85 288.96 303.18 288.96C303.08 288.96 302.99 289.05 302.99 289.16C302.99 289.62 302.99 290.8 302.99 291.27C302.99 291.38 303.08 291.47 303.18 291.47C304.85 291.47 309.63 291.47 311.28 291.47C311.38 291.47 311.47 291.38 311.47 291.27Z" id="ax8usXRQs"></path><path d="M328.3 291.27C328.3 290.8 328.3 289.62 328.3 289.16C328.3 289.05 328.21 288.96 328.11 288.96C326.46 288.96 321.68 288.96 320.02 288.96C319.91 288.96 319.82 289.05 319.82 289.16C319.82 289.62 319.82 290.8 319.82 291.27C319.82 291.38 319.91 291.47 320.02 291.47C321.68 291.47 326.46 291.47 328.11 291.47C328.21 291.47 328.3 291.38 328.3 291.27Z" id="jkEa9Ku6X"></path><path d="M345.31 291.27C345.31 290.8 345.31 289.62 345.31 289.16C345.31 289.05 345.22 288.96 345.12 288.96C343.46 288.96 338.69 288.96 337.02 288.96C336.92 288.96 336.83 289.05 336.83 289.16C336.83 289.62 336.83 290.8 336.83 291.27C336.83 291.38 336.92 291.47 337.02 291.47C338.69 291.47 343.46 291.47 345.12 291.47C345.22 291.47 345.31 291.38 345.31 291.27Z" id="f1GMcbhidu"></path><path d="M362.61 291.27C362.61 290.8 362.61 289.62 362.61 289.16C362.61 289.05 362.52 288.96 362.41 288.96C360.75 288.96 355.98 288.96 354.31 288.96C354.21 288.96 354.12 289.05 354.12 289.16C354.12 289.62 354.12 290.8 354.12 291.27C354.12 291.38 354.21 291.47 354.31 291.47C355.98 291.47 360.75 291.47 362.41 291.47C362.52 291.47 362.61 291.38 362.61 291.27Z" id="biqO09cY6"></path><path d="M379.51 291.27C379.51 290.8 379.51 289.62 379.51 289.16C379.51 289.05 379.44 288.96 379.32 288.96C377.67 288.96 372.89 288.96 371.23 288.96C371.12 288.96 371.04 289.05 371.04 289.16C371.04 289.62 371.04 290.8 371.04 291.27C371.04 291.38 371.12 291.47 371.23 291.47C372.89 291.47 377.67 291.47 379.32 291.47C379.44 291.47 379.51 291.38 379.51 291.27Z" id="arZVkKZsn"></path><path d="M396.52 291.27C396.52 290.8 396.52 289.62 396.52 289.16C396.52 289.05 396.45 288.96 396.33 288.96C394.68 288.96 389.9 288.96 388.24 288.96C388.13 288.96 388.04 289.05 388.04 289.16C388.04 289.62 388.04 290.8 388.04 291.27C388.04 291.38 388.13 291.47 388.24 291.47C389.9 291.47 394.68 291.47 396.33 291.47C396.45 291.47 396.52 291.38 396.52 291.27Z" id="a2dO2PHLWY"></path><path d="M413.82 291.27C413.82 290.8 413.82 289.62 413.82 289.16C413.82 289.05 413.73 288.96 413.62 288.96C411.96 288.96 407.19 288.96 405.52 288.96C405.42 288.96 405.33 289.05 405.33 289.16C405.33 289.62 405.33 290.8 405.33 291.27C405.33 291.38 405.42 291.47 405.52 291.47C407.19 291.47 411.96 291.47 413.62 291.47C413.73 291.47 413.82 291.38 413.82 291.27Z" id="a5hzGmTYVa"></path><path d="M430.2 291.27C430.2 290.8 430.2 289.62 430.2 289.16C430.2 289.05 430.11 288.96 430 288.96C428.34 288.96 423.57 288.96 421.9 288.96C421.8 288.96 421.71 289.05 421.71 289.16C421.71 289.62 421.71 290.8 421.71 291.27C421.71 291.38 421.8 291.47 421.9 291.47C423.57 291.47 428.34 291.47 430 291.47C430.11 291.47 430.2 291.38 430.2 291.27Z" id="i2piO9WuVE"></path><path d="M447.21 291.27C447.21 290.8 447.21 289.62 447.21 289.16C447.21 289.05 447.12 288.96 447.01 288.96C445.35 288.96 440.57 288.96 438.91 288.96C438.81 288.96 438.72 289.05 438.72 289.16C438.72 289.62 438.72 290.8 438.72 291.27C438.72 291.38 438.81 291.47 438.91 291.47C440.57 291.47 445.35 291.47 447.01 291.47C447.12 291.47 447.21 291.38 447.21 291.27Z" id="ddH4H0KnF"></path><path d="M464.5 291.27C464.5 290.8 464.5 289.62 464.5 289.16C464.5 289.05 464.41 288.96 464.29 288.96C462.64 288.96 457.86 288.96 456.21 288.96C456.09 288.96 456.01 289.05 456.01 289.16C456.01 289.62 456.01 290.8 456.01 291.27C456.01 291.38 456.09 291.47 456.21 291.47C457.86 291.47 462.64 291.47 464.29 291.47C464.41 291.47 464.5 291.38 464.5 291.27Z" id="c1qeluzhjB"></path><path d="M481.41 291.27C481.41 290.8 481.41 289.62 481.41 289.16C481.41 289.05 481.32 288.96 481.21 288.96C479.56 288.96 474.78 288.96 473.13 288.96C473.01 288.96 472.92 289.05 472.92 289.16C472.92 289.62 472.92 290.8 472.92 291.27C472.92 291.38 473.01 291.47 473.13 291.47C474.78 291.47 479.56 291.47 481.21 291.47C481.32 291.47 481.41 291.38 481.41 291.27Z" id="aUTaxUxXz"></path><path d="M498.42 291.27C498.42 290.8 498.42 289.62 498.42 289.16C498.42 289.05 498.33 288.96 498.22 288.96C496.56 288.96 491.79 288.96 490.12 288.96C490.02 288.96 489.93 289.05 489.93 289.16C489.93 289.62 489.93 290.8 489.93 291.27C489.93 291.38 490.02 291.47 490.12 291.47C491.79 291.47 496.56 291.47 498.22 291.47C498.33 291.47 498.42 291.38 498.42 291.27Z" id="aZhiPnGu8"></path><path d="M515.71 291.27C515.71 290.8 515.71 289.62 515.71 289.16C515.71 289.05 515.62 288.96 515.52 288.96C513.85 288.96 509.08 288.96 507.42 288.96C507.31 288.96 507.22 289.05 507.22 289.16C507.22 289.62 507.22 290.8 507.22 291.27C507.22 291.38 507.31 291.47 507.42 291.47C509.08 291.47 513.85 291.47 515.52 291.47C515.62 291.47 515.71 291.38 515.71 291.27Z" id="aCj0vqSO1"></path><path d="M532.54 291.27C532.54 290.8 532.54 289.62 532.54 289.16C532.54 289.05 532.45 288.96 532.35 288.96C530.68 288.96 525.91 288.96 524.25 288.96C524.14 288.96 524.05 289.05 524.05 289.16C524.05 289.62 524.05 290.8 524.05 291.27C524.05 291.38 524.14 291.47 524.25 291.47C525.91 291.47 530.68 291.47 532.35 291.47C532.45 291.47 532.54 291.38 532.54 291.27Z" id="a7pREqXKh"></path><path d="M205.78 297.42C201.8 297.42 198.57 294.19 198.57 290.21C198.57 286.24 201.8 283.01 205.78 283.01C209.76 283.01 212.99 286.24 212.99 290.21C212.99 294.19 209.76 297.42 205.78 297.42Z" id="bhhfZGWLq"></path><path d="M543.68 278.27L543.96 278.3L544.25 278.34L544.53 278.39L544.8 278.45L545.07 278.53L545.34 278.61L545.6 278.7L545.86 278.81L546.11 278.92L546.36 279.04L546.6 279.17L546.84 279.31L547.07 279.46L547.29 279.62L547.51 279.78L547.72 279.96L547.92 280.14L548.12 280.33L548.31 280.53L548.49 280.73L548.66 280.94L548.83 281.16L548.98 281.38L549.13 281.61L549.27 281.85L549.4 282.09L549.53 282.33L549.64 282.59L549.74 282.84L549.84 283.11L549.92 283.37L549.99 283.64L550.05 283.92L550.1 284.2L550.15 284.48L550.17 284.77L550.19 285.06L550.19 285.23L550.2 285.23L550.2 285.24L550.2 285.35L550.19 285.64L550.17 285.93L550.15 286.22L550.1 286.5L550.05 286.78L549.99 287.06L549.92 287.33L549.84 287.59L549.74 287.85L549.64 288.11L549.53 288.36L549.4 288.61L549.27 288.85L549.13 289.09L548.98 289.32L548.83 289.54L548.66 289.76L548.49 289.97L548.31 290.17L548.12 290.37L547.92 290.56L547.72 290.74L547.51 290.91L547.34 291.04L543.1 299.67L538.85 291.04L538.69 290.91L538.48 290.74L538.27 290.56L538.08 290.37L537.89 290.17L537.7 289.97L537.53 289.76L537.37 289.54L537.21 289.32L537.06 289.09L536.92 288.85L536.79 288.61L536.67 288.36L536.55 288.11L536.45 287.85L536.36 287.59L536.27 287.33L536.2 287.06L536.14 286.78L536.09 286.5L536.05 286.22L536.02 285.93L536 285.64L535.99 285.35L536 285.24L535.99 285.23L536 285.23L536 285.06L536.02 284.77L536.05 284.48L536.09 284.2L536.14 283.92L536.2 283.64L536.27 283.37L536.36 283.11L536.45 282.84L536.55 282.59L536.67 282.33L536.79 282.09L536.92 281.85L537.06 281.61L537.21 281.38L537.37 281.16L537.53 280.94L537.7 280.73L537.89 280.53L538.08 280.33L538.27 280.14L538.48 279.96L538.69 279.78L538.9 279.62L539.13 279.46L539.36 279.31L539.59 279.17L539.83 279.04L540.08 278.92L540.33 278.81L540.59 278.7L540.85 278.61L541.12 278.53L541.39 278.45L541.67 278.39L541.95 278.34L542.23 278.3L542.51 278.27L542.8 278.25L543.1 278.25L543.39 278.25L543.68 278.27ZM542.81 281.1L542.62 281.12L542.44 281.15L542.26 281.19L542.08 281.23L541.91 281.28L541.74 281.34L541.57 281.41L541.41 281.48L541.25 281.56L541.1 281.65L540.95 281.75L540.8 281.85L540.66 281.96L540.52 282.07L540.4 282.19L540.27 282.32L540.15 282.45L540.04 282.59L539.93 282.73L539.83 282.87L539.74 283.02L539.65 283.18L539.57 283.34L539.5 283.5L539.44 283.67L539.38 283.84L539.33 284.02L539.28 284.2L539.25 284.38L539.23 284.56L539.21 284.75L539.2 284.93L539.2 285.13L539.21 285.32L539.23 285.5L539.25 285.69L539.29 285.87L539.33 286.05L539.38 286.22L539.44 286.4L539.51 286.56L539.58 286.73L539.66 286.89L539.75 287.04L539.84 287.2L539.95 287.34L540.05 287.48L540.17 287.62L540.29 287.75L540.41 287.87L540.54 287.99L540.68 288.11L540.82 288.22L540.96 288.32L541.11 288.41L541.27 288.5L541.43 288.58L541.59 288.65L541.76 288.72L541.93 288.78L542.1 288.83L542.27 288.87L542.45 288.91L542.64 288.93L542.82 288.95L543.01 288.96L543.2 288.96L543.38 288.95L543.57 288.93L543.75 288.9L543.93 288.87L544.11 288.82L544.28 288.77L544.45 288.71L544.62 288.65L544.78 288.57L544.94 288.49L545.1 288.4L545.25 288.31L545.39 288.2L545.53 288.1L545.67 287.98L545.8 287.86L545.92 287.74L546.04 287.61L546.15 287.47L546.26 287.33L546.36 287.18L546.45 287.03L546.54 286.87L546.62 286.71L546.69 286.55L546.76 286.38L546.81 286.21L546.86 286.04L546.91 285.86L546.94 285.68L546.97 285.49L546.98 285.31L546.99 285.12L546.99 284.93L546.98 284.74L546.97 284.55L546.94 284.37L546.9 284.18L546.86 284.01L546.81 283.83L546.75 283.66L546.68 283.49L546.61 283.33L546.53 283.16L546.44 283.01L546.35 282.86L546.25 282.71L546.14 282.57L546.02 282.43L545.91 282.3L545.78 282.18L545.65 282.06L545.51 281.95L545.38 281.84L545.23 281.74L545.08 281.64L544.93 281.55L544.77 281.47L544.6 281.4L544.44 281.34L544.27 281.28L544.09 281.23L543.92 281.18L543.74 281.15L543.56 281.12L543.37 281.1L543.19 281.1L543 281.1L542.81 281.1Z" id="a19yKUfSm2"></path></defs><g><g><use xlink:href="#a18IQRQ8hz" opacity="1" fill="#7c7c7c" fill-opacity="1"></use><g><use xlink:href="#a18IQRQ8hz" opacity="1" fill-opacity="0" stroke="#000000" stroke-width="1" stroke-opacity="0"></use></g></g><g><use xlink:href="#c2eswib4vS" opacity="1" fill="#7c7c7c" fill-opacity="1"></use><g><use xlink:href="#c2eswib4vS" opacity="1" fill-opacity="0" stroke="#000000" stroke-width="1" stroke-opacity="0"></use></g></g><g><use xlink:href="#d1OFiBazX" opacity="1" fill="#7c7c7c" fill-opacity="1"></use><g><use xlink:href="#d1OFiBazX" opacity="1" fill-opacity="0" stroke="#000000" stroke-width="1" stroke-opacity="0"></use></g></g><g><use xlink:href="#a1rZYlitU7" opacity="1" fill="#7c7c7c" fill-opacity="1"></use><g><use xlink:href="#a1rZYlitU7" opacity="1" fill-opacity="0" stroke="#000000" stroke-width="1" stroke-opacity="0"></use></g></g><g><use xlink:href="#ayqfZJeEW" opacity="1" fill="#7c7c7c" fill-opacity="1"></use><g><use xlink:href="#ayqfZJeEW" opacity="1" fill-opacity="0" stroke="#000000" stroke-width="1" stroke-opacity="0"></use></g></g><g><use xlink:href="#ax8usXRQs" opacity="1" fill="#7c7c7c" fill-opacity="1"></use><g><use xlink:href="#ax8usXRQs" opacity="1" fill-opacity="0" stroke="#000000" stroke-width="1" stroke-opacity="0"></use></g></g><g><use xlink:href="#jkEa9Ku6X" opacity="1" fill="#7c7c7c" fill-opacity="1"></use><g><use xlink:href="#jkEa9Ku6X" opacity="1" fill-opacity="0" stroke="#000000" stroke-width="1" stroke-opacity="0"></use></g></g><g><use xlink:href="#f1GMcbhidu" opacity="1" fill="#7c7c7c" fill-opacity="1"></use><g><use xlink:href="#f1GMcbhidu" opacity="1" fill-opacity="0" stroke="#000000" stroke-width="1" stroke-opacity="0"></use></g></g><g><use xlink:href="#biqO09cY6" opacity="1" fill="#7c7c7c" fill-opacity="1"></use><g><use xlink:href="#biqO09cY6" opacity="1" fill-opacity="0" stroke="#000000" stroke-width="1" stroke-opacity="0"></use></g></g><g><use xlink:href="#arZVkKZsn" opacity="1" fill="#7c7c7c" fill-opacity="1"></use><g><use xlink:href="#arZVkKZsn" opacity="1" fill-opacity="0" stroke="#000000" stroke-width="1" stroke-opacity="0"></use></g></g><g><use xlink:href="#a2dO2PHLWY" opacity="1" fill="#7c7c7c" fill-opacity="1"></use><g><use xlink:href="#a2dO2PHLWY" opacity="1" fill-opacity="0" stroke="#000000" stroke-width="1" stroke-opacity="0"></use></g></g><g><use xlink:href="#a5hzGmTYVa" opacity="1" fill="#7c7c7c" fill-opacity="1"></use><g><use xlink:href="#a5hzGmTYVa" opacity="1" fill-opacity="0" stroke="#000000" stroke-width="1" stroke-opacity="0"></use></g></g><g><use xlink:href="#i2piO9WuVE" opacity="1" fill="#7c7c7c" fill-opacity="1"></use><g><use xlink:href="#i2piO9WuVE" opacity="1" fill-opacity="0" stroke="#000000" stroke-width="1" stroke-opacity="0"></use></g></g><g><use xlink:href="#ddH4H0KnF" opacity="1" fill="#7c7c7c" fill-opacity="1"></use><g><use xlink:href="#ddH4H0KnF" opacity="1" fill-opacity="0" stroke="#000000" stroke-width="1" stroke-opacity="0"></use></g></g><g><use xlink:href="#c1qeluzhjB" opacity="1" fill="#7c7c7c" fill-opacity="1"></use><g><use xlink:href="#c1qeluzhjB" opacity="1" fill-opacity="0" stroke="#000000" stroke-width="1" stroke-opacity="0"></use></g></g><g><use xlink:href="#aUTaxUxXz" opacity="1" fill="#7c7c7c" fill-opacity="1"></use><g><use xlink:href="#aUTaxUxXz" opacity="1" fill-opacity="0" stroke="#000000" stroke-width="1" stroke-opacity="0"></use></g></g><g><use xlink:href="#aZhiPnGu8" opacity="1" fill="#7c7c7c" fill-opacity="1"></use><g><use xlink:href="#aZhiPnGu8" opacity="1" fill-opacity="0" stroke="#000000" stroke-width="1" stroke-opacity="0"></use></g></g><g><use xlink:href="#aCj0vqSO1" opacity="1" fill="#7c7c7c" fill-opacity="1"></use><g><use xlink:href="#aCj0vqSO1" opacity="1" fill-opacity="0" stroke="#000000" stroke-width="1" stroke-opacity="0"></use></g></g><g><use xlink:href="#a7pREqXKh" opacity="1" fill="#7c7c7c" fill-opacity="1"></use><g><use xlink:href="#a7pREqXKh" opacity="1" fill-opacity="0" stroke="#000000" stroke-width="1" stroke-opacity="0"></use></g></g><g><use xlink:href="#bhhfZGWLq" opacity="1" fill="#008081" fill-opacity="1"></use><g><use xlink:href="#bhhfZGWLq" opacity="1" fill-opacity="0" stroke="#000000" stroke-width="1" stroke-opacity="0"></use></g></g><g><use xlink:href="#a19yKUfSm2" opacity="1" fill="#008081" fill-opacity="1"></use><g><use xlink:href="#a19yKUfSm2" opacity="1" fill-opacity="0" stroke="#000000" stroke-width="1" stroke-opacity="0"></use></g></g></g></svg>