<?xml version="1.0" encoding="UTF-8" standalone="no"?>
<!DOCTYPE svg PUBLIC "-//W3C//DTD SVG 1.1//EN" "http://www.w3.org/Graphics/SVG/1.1/DTD/svg11.dtd">
<svg 
  version="1.1" xmlns="http://www.w3.org/2000/svg" xmlns:xlink="http://www.w3.org/1999/xlink" 
  preserveAspectRatio="xMidYMid meet" viewBox="138.83471074380162 52.10840680654837 27 27" 
  width="21" height="21"><defs>
  <path d="M156.39 54.28L157.5 54.9L158.53 55.64L159.46 56.48L160.31 57.42L161.04 58.45L161.67 
  59.55L162.16 60.73L162.53 61.97L162.76 63.27L162.83 64.61L162.76 65.95L162.53 67.24L162.16 
  68.49L161.67 69.66L161.04 70.77L160.31 71.8L159.46 72.74L158.53 73.58L157.5 74.32L156.39 
  74.94L155.21 75.44L153.97 75.8L152.68 76.03L151.33 76.11L149.99 76.03L148.7 75.8L147.46 
  75.44L146.28 74.94L145.17 74.32L144.14 73.58L143.2 72.74L142.36 71.8L141.63 70.77L141 
  69.66L140.51 68.49L140.14 67.24L139.91 65.95L139.83 64.61L139.91 63.27L140.14 61.97L140.51 
  60.73L141 59.55L141.63 58.45L142.36 57.42L143.2 56.48L144.14 55.64L145.17 54.9L146.28 
  54.28L147.46 53.78L148.7 53.41L149.99 53.19L151.33 53.11L152.68 53.19L153.97 53.41L155.21 
  53.78L155.21 53.78L156.39 54.28ZM146.15 56.62L145.09 57.42L144.15 58.36L143.35 59.43L142.7 
  60.6L142.22 61.86L141.92 63.2L141.81 64.61L141.92 66.01L142.22 67.36L142.7 68.62L143.35 
  69.79L144.15 70.85L145.09 71.79L146.15 72.59L147.32 73.24L148.59 73.73L149.93 74.03L151.33 
  74.13L152.74 74.03L154.08 73.73L155.35 73.24L156.52 72.59L157.58 71.79L158.52 70.85L159.32 
  69.79L159.97 68.62L160.45 67.36L160.75 66.01L160.86 64.61L160.75 63.2L160.45 61.86L159.97 
  60.6L159.32 59.43L158.52 58.36L157.58 57.42L156.52 56.62L155.35 55.97L154.08 55.49L152.74 
  55.19L151.33 55.09L149.93 55.19L148.59 55.49L147.32 55.97L147.32 55.97L146.15 56.62Z" 
  id="k3zSmY6Gnl"></path><path d="M152.28 65.55L152.28 68.91L150.39 68.91L150.39 65.55L147.03 
  65.55L147.03 63.67L150.39 63.67L150.39 60.31L152.28 60.31L152.28 63.67L155.64 63.67L155.64 
  65.55L152.28 65.55Z" id="a6xujJZvPx"></path></defs><g><g>
  <use xlink:href="#k3zSmY6Gnl" opacity="1" fill="#ffffff" fill-opacity="1">
  </use></g><g><use xlink:href="#a6xujJZvPx" opacity="1" fill="#ffffff" fill-opacity="1"></use></g></g>
</svg>