<?xml version="1.0" encoding="UTF-8" standalone="no"?>
<!DOCTYPE svg PUBLIC "-//W3C//DTD SVG 1.1//EN" "http://www.w3.org/Graphics/SVG/1.1/DTD/svg11.dtd">
<svg version="1.1" xmlns="http://www.w3.org/2000/svg" xmlns:xlink="http://www.w3.org/1999/xlink" preserveAspectRatio="xMidYMid meet" viewBox="269.69930069930064 194.38491779397552 102.60139860139856 152.72514504899746" width="15" height="22.63"><defs><path d="M324.04 195.55L326.03 195.75L327.99 196.03L329.93 196.39L331.84 196.82L333.72 197.32L335.58 197.9L337.4 198.55L339.18 199.26L340.93 200.04L342.65 200.89L344.32 201.8L345.96 202.78L347.56 203.81L349.11 204.9L350.62 206.05L352.08 207.26L353.49 208.52L354.85 209.83L356.17 211.2L357.43 212.61L358.63 214.07L359.78 215.58L360.88 217.13L361.91 218.72L362.88 220.36L363.79 222.04L364.64 223.75L365.42 225.5L366.14 227.29L366.79 229.11L367.36 230.96L367.87 232.84L368.3 234.76L368.65 236.69L368.94 238.66L369.14 240.64L369.26 242.65L369.28 243.86L369.3 243.86L369.29 243.9L369.3 244.69L369.26 246.72L369.14 248.73L368.94 250.71L368.65 252.68L368.3 254.62L367.87 256.53L367.36 258.41L366.79 260.26L366.14 262.08L365.42 263.87L364.64 265.62L363.79 267.33L362.88 269.01L361.91 270.65L360.88 272.24L359.78 273.79L358.63 275.3L357.43 276.76L356.17 278.18L354.85 279.54L353.49 280.85L352.08 282.11L350.62 283.32L349.47 284.2L320 344.11L290.54 284.2L289.38 283.32L287.92 282.11L286.51 280.85L285.15 279.54L283.83 278.18L282.57 276.76L281.37 275.3L280.22 273.79L279.12 272.24L278.09 270.65L277.12 269.01L276.21 267.33L275.36 265.62L274.58 263.87L273.86 262.08L273.21 260.26L272.64 258.41L272.13 256.53L271.7 254.62L271.35 252.68L271.06 250.71L270.86 248.73L270.74 246.72L270.7 244.69L270.72 243.9L270.7 243.86L270.72 243.86L270.74 242.65L270.86 240.64L271.06 238.66L271.35 236.69L271.7 234.76L272.13 232.84L272.64 230.96L273.21 229.11L273.86 227.29L274.58 225.5L275.36 223.75L276.21 222.04L277.12 220.36L278.09 218.72L279.12 217.13L280.22 215.58L281.37 214.07L282.57 212.61L283.83 211.2L285.15 209.83L286.51 208.52L287.92 207.26L289.38 206.05L290.89 204.9L292.44 203.81L294.04 202.78L295.68 201.8L297.35 200.89L299.07 200.04L300.82 199.26L302.6 198.55L304.42 197.9L306.28 197.32L308.16 196.82L310.07 196.39L312.01 196.03L313.97 195.75L315.96 195.55L317.97 195.43L320 195.38L322.03 195.43L324.04 195.55ZM318 215.22L316.71 215.35L315.44 215.53L314.19 215.78L312.96 216.08L311.75 216.44L310.57 216.85L309.41 217.32L308.28 217.83L307.18 218.4L306.11 219.01L305.07 219.68L304.06 220.38L303.09 221.13L302.15 221.93L301.25 222.76L300.39 223.64L299.57 224.55L298.79 225.5L298.05 226.48L297.35 227.5L296.71 228.55L296.1 229.63L295.55 230.74L295.04 231.88L294.59 233.04L294.19 234.23L293.84 235.44L293.54 236.68L293.31 237.93L293.13 239.21L293.01 240.5L292.95 241.81L292.95 243.13L293.01 244.45L293.14 245.75L293.32 247.04L293.57 248.3L293.87 249.54L294.22 250.76L294.63 251.95L295.09 253.12L295.61 254.26L296.17 255.37L296.78 256.45L297.43 257.5L298.14 258.52L298.88 259.5L299.67 260.44L300.49 261.35L301.36 262.22L302.27 263.05L303.21 263.84L304.18 264.59L305.19 265.29L306.23 265.94L307.3 266.55L308.41 267.11L309.53 267.62L310.69 268.08L311.87 268.49L313.07 268.84L314.29 269.14L315.54 269.38L316.8 269.56L318.08 269.68L319.38 269.74L320.69 269.74L322 269.67L323.29 269.55L324.56 269.36L325.81 269.12L327.04 268.81L328.25 268.46L329.43 268.04L330.59 267.58L331.72 267.06L332.82 266.5L333.89 265.88L334.93 265.22L335.94 264.51L336.91 263.76L337.85 262.97L338.75 262.13L339.61 261.26L340.43 260.35L341.21 259.4L341.95 258.42L342.65 257.4L343.29 256.35L343.9 255.27L344.45 254.16L344.96 253.02L345.41 251.85L345.81 250.66L346.16 249.45L346.46 248.22L346.69 246.96L346.87 245.69L346.99 244.4L347.05 243.09L347.05 241.77L346.99 240.45L346.86 239.14L346.68 237.86L346.43 236.6L346.13 235.36L345.78 234.14L345.37 232.94L344.91 231.78L344.39 230.64L343.83 229.52L343.22 228.44L342.57 227.39L341.86 226.38L341.12 225.4L340.33 224.45L339.51 223.54L338.64 222.67L337.73 221.84L336.79 221.06L335.82 220.31L334.81 219.61L333.77 218.95L332.7 218.34L331.59 217.78L330.47 217.27L329.31 216.82L328.13 216.41L326.93 216.06L325.71 215.76L324.46 215.52L323.2 215.34L321.92 215.22L320.62 215.16L319.31 215.16L318 215.22Z" id="dbkqK5feC"></path></defs><g><g><use xlink:href="#dbkqK5feC" opacity="1" fill="#008081" fill-opacity="1"></use></g></g></svg>